<svg id="Layer_1" data-name="Layer 1" xmlns="http://www.w3.org/2000/svg" width="128" height="128" viewBox="0 0 128 128"><defs><style>.cls-1{fill:#e1762f;}</style></defs><path class="cls-1" d="M105.71,104.4V23.6a1.33,1.33,0,0,0-1.31-1.31h-2.08L77.69,39,64,27.83,50.31,39,25.68,22.29H23.6a1.33,1.33,0,0,0-1.31,1.31v80.8a1.33,1.33,0,0,0,1.31,1.31h80.8a1.33,1.33,0,0,0,1.31-1.31ZM50,32.07l12-9.78H35.59Zm28,0,14.4-9.78H66Zm36-8.47v80.8a9.56,9.56,0,0,1-9.65,9.65H23.6A9.56,9.56,0,0,1,14,104.4V23.6A9.56,9.56,0,0,1,23.6,14h80.8a9.56,9.56,0,0,1,9.65,9.65Z"/><path class="cls-1" d="M48.75,97.53A4.76,4.76,0,0,1,44,92.88v0A6.35,6.35,0,0,1,44.62,90a12.47,12.47,0,0,1,1.58-2.5L69.93,58.26H47.48a2.77,2.77,0,0,1-2.6-1.82v0a7.21,7.21,0,0,1-.4-2.46,4.32,4.32,0,0,1,1.07-3.27,3.91,3.91,0,0,1,2.81-1H78.23a4.86,4.86,0,0,1,4.9,4.74v.06a6.15,6.15,0,0,1-.62,2.71,12.06,12.06,0,0,1-1.63,2.51L57.25,89h24a2.51,2.51,0,0,1,2.4,1.72v0a8,8,0,0,1,.36,2.45A4.33,4.33,0,0,1,83,96.51a3.9,3.9,0,0,1-2.81,1Z"/></svg>